<svg width="55" height="56" viewBox="0 0 55 56" fill="none" xmlns="http://www.w3.org/2000/svg">
<path d="M42.3226 16.8226L21.1003 38.0449L10.878 27.8226C10.4479 27.3925 9.75267 27.3925 9.32258 27.8226C8.89247 28.2527 8.89247 28.9479 9.32258 29.378L20.3226 40.378C20.5371 40.5925 20.8187 40.7003 21.1003 40.7003C21.3819 40.7003 21.6635 40.5925 21.878 40.378L43.878 18.378C44.3081 17.9479 44.3081 17.2527 43.878 16.8226C43.4479 16.3925 42.7516 16.3925 42.3226 16.8226Z" fill="#9C9E4A"/>
<path d="M27.5 0.5C20.1541 0.5 13.2481 3.36 8.05578 8.55578C2.86172 13.7481 0 20.6558 0 28C0 35.3442 2.86172 42.2519 8.05578 47.4442C13.2481 52.64 20.1541 55.5 27.5 55.5C34.8459 55.5 41.7519 52.64 46.9442 47.4442C52.1383 42.2519 55 35.3442 55 28C55 20.6558 52.1383 13.7481 46.9442 8.55578C41.7519 3.36 34.8459 0.5 27.5 0.5ZM45.7291 46.2291C40.8598 51.0983 34.387 53.7812 27.5 53.7812C20.613 53.7812 14.1402 51.0983 9.27094 46.2291C4.40172 41.3598 1.71875 34.887 1.71875 28C1.71875 21.113 4.40172 14.6402 9.27094 9.77094C14.1402 4.90172 20.613 2.21875 27.5 2.21875C34.387 2.21875 40.8598 4.90172 45.7291 9.77094C50.5983 14.6402 53.2812 21.113 53.2812 28C53.2812 34.887 50.5983 41.3598 45.7291 46.2291Z" fill="#9C9E4A"/>
</svg>
