<svg width="32" height="32" viewBox="0 0 32 32" fill="none" xmlns="http://www.w3.org/2000/svg">
<path d="M15.9999 11.8342C13.7062 11.8342 11.8343 13.7061 11.8343 15.9999C11.8343 18.2936 13.7062 20.1655 15.9999 20.1655C18.2937 20.1655 20.1655 18.2936 20.1655 15.9999C20.1655 13.7061 18.2937 11.8342 15.9999 11.8342ZM28.4937 15.9999C28.4937 14.2749 28.5093 12.5655 28.4124 10.8436C28.3155 8.84361 27.8593 7.0686 26.3968 5.60611C24.9312 4.14048 23.1593 3.68736 21.1593 3.59048C19.4343 3.49361 17.7249 3.50923 16.003 3.50923C14.278 3.50923 12.5687 3.49361 10.8468 3.59048C8.84678 3.68736 7.07178 4.14361 5.60928 5.60611C4.14365 7.07173 3.69053 8.84361 3.59365 10.8436C3.49678 12.5686 3.5124 14.278 3.5124 15.9999C3.5124 17.7217 3.49678 19.4342 3.59365 21.1561C3.69053 23.1561 4.14678 24.9311 5.60928 26.3936C7.0749 27.8592 8.84678 28.3124 10.8468 28.4092C12.5718 28.5061 14.2812 28.4905 16.003 28.4905C17.728 28.4905 19.4374 28.5061 21.1593 28.4092C23.1593 28.3124 24.9343 27.8561 26.3968 26.3936C27.8624 24.928 28.3155 23.1561 28.4124 21.1561C28.5124 19.4342 28.4937 17.7249 28.4937 15.9999ZM15.9999 22.4092C12.453 22.4092 9.59053 19.5467 9.59053 15.9999C9.59053 12.453 12.453 9.59048 15.9999 9.59048C19.5468 9.59048 22.4093 12.453 22.4093 15.9999C22.4093 19.5467 19.5468 22.4092 15.9999 22.4092ZM22.6718 10.8249C21.8437 10.8249 21.1749 10.1561 21.1749 9.32798C21.1749 8.49986 21.8437 7.83111 22.6718 7.83111C23.4999 7.83111 24.1687 8.49986 24.1687 9.32798C24.1689 9.52462 24.1304 9.71938 24.0552 9.9011C23.9801 10.0828 23.8698 10.2479 23.7308 10.387C23.5917 10.526 23.4266 10.6363 23.2449 10.7114C23.0632 10.7866 22.8684 10.8251 22.6718 10.8249Z" fill="#242021"/>
</svg>
