<svg width="32" height="32" viewBox="0 0 32 32" fill="none" xmlns="http://www.w3.org/2000/svg">
<path d="M16.0001 2.6665C8.64008 2.6665 2.66675 8.63984 2.66675 15.9998C2.66675 23.3598 8.64008 29.3332 16.0001 29.3332C23.3601 29.3332 29.3334 23.3598 29.3334 15.9998C29.3334 8.63984 23.3601 2.6665 16.0001 2.6665ZM22.1867 11.7332C21.9867 13.8398 21.1201 18.9598 20.6801 21.3198C20.4934 22.3198 20.1201 22.6532 19.7734 22.6932C19.0001 22.7598 18.4134 22.1865 17.6667 21.6932C16.4934 20.9198 15.8267 20.4398 14.6934 19.6932C13.3734 18.8265 14.2267 18.3465 14.9867 17.5732C15.1867 17.3732 18.6001 14.2665 18.6667 13.9865C18.676 13.9441 18.6748 13.9001 18.6632 13.8582C18.6515 13.8164 18.6299 13.7781 18.6001 13.7465C18.5201 13.6798 18.4134 13.7065 18.3201 13.7198C18.2001 13.7465 16.3334 14.9865 12.6934 17.4398C12.1601 17.7998 11.6801 17.9865 11.2534 17.9732C10.7734 17.9598 9.86675 17.7065 9.18675 17.4798C8.34675 17.2132 7.69341 17.0665 7.74675 16.5998C7.77341 16.3598 8.10675 16.1198 8.73342 15.8665C12.6267 14.1732 15.2134 13.0532 16.5067 12.5198C20.2134 10.9732 20.9734 10.7065 21.4801 10.7065C21.5868 10.7065 21.8401 10.7332 22.0001 10.8665C22.1334 10.9732 22.1734 11.1198 22.1867 11.2265C22.1734 11.3065 22.2001 11.5465 22.1867 11.7332Z" fill="#242021"/>
</svg>
